<svg xmlns="http://www.w3.org/2000/svg" width="87" height="117.001" viewBox="0 0 87 117.001">
  <g id="logo_light" transform="translate(-163 -372.999)">
    <path id="Union_25" d="M-15235-7921h87l-43.5,40Zm0,0v-63a14,14,0,0,1,14-14h59a14,14,0,0,1,14,14v63Z" transform="translate(15398 8371)" fill="#fff"/>
    <path id="Path_118217" d="M13.769-5.136V-22.868h6.092v-5.4H.879v5.4H6.971V-5.136ZM32.158-28.672c-7.15,0-11.658,4.585-11.658,11.972S24.989-4.74,32.156-4.74c7.151,0,11.656-4.569,11.656-11.96S39.309-28.672,32.158-28.672Zm0,5.419c2.838,0,4.73,2.549,4.73,6.557,0,3.992-1.876,6.541-4.73,6.541s-4.73-2.549-4.73-6.541S29.321-23.253,32.158-23.253Z" transform="translate(183.653 419.926)" fill="#3700b3"/>
    <path id="Path_118218" d="M1.953-28.271V-5.136h9.892c7.006,0,11.143-4.329,11.143-11.736s-4.12-11.4-11.143-11.4Zm6.8,5.4h2.132c3.255,0,5.179,2.1,5.179,6,0,4.265-1.78,6.333-5.179,6.333H8.751Zm27.977-5.8c-7.151,0-11.656,4.585-11.656,11.976S29.563-4.735,36.73-4.735c7.151,0,11.656-4.569,11.656-11.96S43.878-28.672,36.728-28.672Zm0,5.419c2.838,0,4.73,2.549,4.73,6.557,0,3.992-1.876,6.541-4.73,6.541S32-12.7,32-16.7s1.89-6.553,4.728-6.553Z" transform="translate(181.332 450.298)" fill="#3700b3"/>
  </g>
</svg>
